%FSLAX32Y32*%
%MOMM*%
%LNLOETSTOP2*%
G71*
G01*
%ADD10C, 4.60*%
%ADD11C, 1.49*%
%LPD*%
X13206Y9238D02*
G54D10*
D03*
X11936Y9238D02*
G54D10*
D03*
G36*
X15030Y7326D02*
X14684Y7326D01*
X14684Y7086D01*
X15030Y7086D01*
X15030Y7326D01*
G37*
G36*
X12490Y7326D02*
X12144Y7326D01*
X12144Y7086D01*
X12490Y7086D01*
X12490Y7326D01*
G37*
G54D11*
X14857Y6190D02*
X12190Y6190D01*
X11174Y7206D01*
G36*
X11104Y7818D02*
X11244Y7818D01*
X11244Y8118D01*
X11104Y8118D01*
X11104Y7818D01*
G37*
G36*
X11231Y7818D02*
X11371Y7818D01*
X11371Y8118D01*
X11231Y8118D01*
X11231Y7818D01*
G37*
G36*
X11358Y7818D02*
X11498Y7818D01*
X11498Y8118D01*
X11358Y8118D01*
X11358Y7818D01*
G37*
G36*
X11485Y7818D02*
X11625Y7818D01*
X11625Y8118D01*
X11485Y8118D01*
X11485Y7818D01*
G37*
G36*
X11612Y7818D02*
X11752Y7818D01*
X11752Y8118D01*
X11612Y8118D01*
X11612Y7818D01*
G37*
G36*
X11739Y7818D02*
X11879Y7818D01*
X11879Y8118D01*
X11739Y8118D01*
X11739Y7818D01*
G37*
G36*
X11866Y7818D02*
X12006Y7818D01*
X12006Y8118D01*
X11866Y8118D01*
X11866Y7818D01*
G37*
G36*
X11866Y8318D02*
X12006Y8318D01*
X12006Y8618D01*
X11866Y8618D01*
X11866Y8318D01*
G37*
G36*
X11739Y8318D02*
X11879Y8318D01*
X11879Y8618D01*
X11739Y8618D01*
X11739Y8318D01*
G37*
G36*
X11612Y8318D02*
X11752Y8318D01*
X11752Y8618D01*
X11612Y8618D01*
X11612Y8318D01*
G37*
G36*
X11485Y8318D02*
X11625Y8318D01*
X11625Y8618D01*
X11485Y8618D01*
X11485Y8318D01*
G37*
G36*
X11358Y8318D02*
X11498Y8318D01*
X11498Y8618D01*
X11358Y8618D01*
X11358Y8318D01*
G37*
G36*
X11231Y8318D02*
X11371Y8318D01*
X11371Y8618D01*
X11231Y8618D01*
X11231Y8318D01*
G37*
G36*
X11104Y8318D02*
X11244Y8318D01*
X11244Y8618D01*
X11104Y8618D01*
X11104Y8318D01*
G37*
G36*
X10826Y6000D02*
X11014Y6000D01*
X11014Y6126D01*
X10826Y6126D01*
X10826Y6000D01*
G37*
G36*
X10826Y6128D02*
X11014Y6128D01*
X11014Y6252D01*
X10826Y6252D01*
X10826Y6128D01*
G37*
G36*
X10826Y6254D02*
X11014Y6254D01*
X11014Y6380D01*
X10826Y6380D01*
X10826Y6254D01*
G37*
G36*
X10826Y6382D02*
X11014Y6382D01*
X11014Y6506D01*
X10826Y6506D01*
X10826Y6382D01*
G37*
G36*
X11334Y6382D02*
X11522Y6382D01*
X11522Y6506D01*
X11334Y6506D01*
X11334Y6382D01*
G37*
G36*
X11334Y6254D02*
X11522Y6254D01*
X11522Y6380D01*
X11334Y6380D01*
X11334Y6254D01*
G37*
G36*
X11334Y6128D02*
X11522Y6128D01*
X11522Y6252D01*
X11334Y6252D01*
X11334Y6128D01*
G37*
G36*
X11334Y6000D02*
X11522Y6000D01*
X11522Y6126D01*
X11334Y6126D01*
X11334Y6000D01*
G37*
G36*
X11334Y5874D02*
X11522Y5874D01*
X11522Y5998D01*
X11334Y5998D01*
X11334Y5874D01*
G37*
G36*
X11334Y5746D02*
X11522Y5746D01*
X11522Y5872D01*
X11334Y5872D01*
X11334Y5746D01*
G37*
G36*
X11334Y5620D02*
X11522Y5620D01*
X11522Y5744D01*
X11334Y5744D01*
X11334Y5620D01*
G37*
G36*
X10826Y5874D02*
X11014Y5874D01*
X11014Y5998D01*
X10826Y5998D01*
X10826Y5874D01*
G37*
G36*
X10826Y5746D02*
X11014Y5746D01*
X11014Y5872D01*
X10826Y5872D01*
X10826Y5746D01*
G37*
G36*
X10826Y5620D02*
X11014Y5620D01*
X11014Y5744D01*
X10826Y5744D01*
X10826Y5620D01*
G37*
G36*
X11334Y5492D02*
X11522Y5492D01*
X11522Y5618D01*
X11334Y5618D01*
X11334Y5492D01*
G37*
G36*
X10826Y5492D02*
X11014Y5492D01*
X11014Y5618D01*
X10826Y5618D01*
X10826Y5492D01*
G37*
M02*
